<?xml version="1.0" encoding="UTF-8"?>
<svg id="Layer_2" data-name="Layer 2" xmlns="http://www.w3.org/2000/svg" viewBox="0 0 57.07 140.85">
  <defs>
    <style>
      .cls-1 {
        fill: red;
      }
    </style>
  </defs>
  <g id="Layer_1-2" data-name="Layer 1">
    <g>
      <path class="cls-1" d="M27.15,137.34c-.37.23.06,2.66-2.64,3.31-4.38,1.05-20.41-2.09-22.2-7.09C.69,129.06.08,104.78.02,98.4-.21,74.64,2.17,37.48,7.39,14.49,10.94-1.14,26.84,3.88,38.99,0c6.36.3,13.09,20.55,14.44,26.01,8.83,35.71-.9,72.72-3.52,108.76-1.58,2.56-11.29,3.73-14.88,4.01-2.3.18-7.55-1.65-7.89-1.43ZM19.72,124.63c.27-13.01,1.14-26.14,1.13-39.16,0-17.58.04-39.56-3.58-56.51-.37-1.73-3.16-12.47-4.17-12.44-1.52.05-4.26,19.78-3.65,20.65,1.42,2.01,10.96-5.94,8.93,5.94-1.14-1.74-7.94-6.7-9.38-3.82-.59,1.19-.39,7.32-.07,7.6,1.2,1.07,9.19-3.2,7.67,2.77l-1.62-1.95c-1.4,1.59-6.42.91-6.93,1.44-.26.27-.89,7.17-.7,7.49.07.12,2.04-1.33,2.7-.26.95,1.54-.19,4.54,1.8,4.3-.23-2.94,1.72-6.48,5-6.72l.32,5.36c4.42-3.48,1.66,4.84-.88,3.26-.64-.39-.45-5.43-2.45-5.22-1.25,2.72-.72,15.46-4.69,12.09-.42-.35-.12-7.03-.51-8.58-2.72,3.61-2.79,14.93-1.93,19.87,1.31,7.58,1.44,2.36,5.51,5.19l-3,3.4,2.2.94-4.05,4-1.75-11.72,1.64,47.73,10.75-.06c1.38,4.46-5.68.56-6.23,3.56l7.55.66.65-7.05c-2.8,1.11-13.3.3-10.95-4.19.94-1.8,8.24,4.75,10.7,1.44Z"/>
      <path class="cls-1" d="M16.43,101.2c.61.49,2.87-.78,3.15.41-2.85,2.18-4.79,3.1-3.89,7.21-2.62-3.1.56-6.31-5.71-6.13.08-2.96,4.02-1.02,4.22-1.29.43-.6.52-12.12.29-14,2.96,1.87.51,12.62,1.95,13.8Z"/>
      <path class="cls-1" d="M12.98,117.59c8.88-2.99-8.11-7.22-2.07-8.48,4.82-1.01,9.79,8.99,7.62,11.4-.18.2-5.15.47-5.37.31-.26-.2.06-2.38-.18-3.22-9.15,3.08-4.88-5.09-.12-2.14.21.13-.06,1.53.12,2.14ZM17.26,117.36l-2.13.12.06,1.05,2.13-.12-.06-1.05Z"/>
      <path class="cls-1" d="M12.01,77.05c.03-.12,1.23-.23,1.69-1.22.54-1.18-.2-6.08,3.13-4.19,4.22,2.4.71,11.85-2.72,9.9-.99-.56-2.48-3.16-2.1-4.49ZM17.06,76.5c.65-1.69-.77-4.33-1.23-3.14-.65,1.69.77,4.33,1.23,3.14ZM15.59,78.74l.06,1.07.5-.57-.57-.51Z"/>
      <path class="cls-1" d="M15.58,69.06c-.4-1.98-.22-3.71,1.87-4.41.4,1.98.22,3.71-1.87,4.41Z"/>
      <polygon class="cls-1" points="8.91 74.82 9.48 75.32 8.98 75.89 8.91 74.82"/>
      <polygon class="cls-1" points="12.22 95.06 12.79 95.56 12.29 96.13 12.22 95.06"/>
    </g>
  </g>
</svg>