<?xml version="1.0" encoding="UTF-8"?>
<svg id="Layer_2" data-name="Layer 2" xmlns="http://www.w3.org/2000/svg" viewBox="0 0 488.25 917.28">
  <defs>
    <style>
      .cls-1 {
        fill: red;
      }
    </style>
  </defs>
  <g id="Layer_1-2" data-name="Layer 1">
    <g>
      <path class="cls-1" d="M38.21,174.29c1.9,1.41-.03,8.28-1.43,10.1-1.77,2.28-3.67,1.45-4.32,2.5-1.74,2.79-3.86,13.09-6.33,17.28-.86,1.46-3.32,1.21-3.85,2.97-.35,1.17.63,4.94.1,7.59-1.38,6.9-4.35,12.42-6.3,18.05-3.7,10.66,3.33,3.09,8.54,2.56,6.51-.66,19.53.57,23.3,6.8,3.61,5.95,1.66,35.05-4.22,39.04-1.24.84-3.78,1.02-5.34,1.06l.64-1.88c-1.55.97-6.52-.87-6.7-.59-.33.5.18,2.38-.26,3.17-.7,1.24-2.28-.15-2.06,1.45.69-.05,1.57.18,1.8.88,3.98,11.78,7.21,23.31,12.54,34.36,13.2,27.34,32.03,51.69,47.78,78.2,5.66,9.54,9.1,21.34,16.19,29.28,1.4,1.57,5.27,3.29,5.67,4.07,3.33,6.41.35,24.71.15,32.12,3.35-2.34,3.01-10.59,3.15-14.67.25-7.29-.28-15.62-2.87-22.48l1.84.67c.42-10.32,7.18-21.37,8.84-30.93,1.71-9.84.98-22.78,2.37-33.28,2.16-16.31,5.95-30.72,9.66-46.54.88-3.74,4.95-30.36,8.01-30.53,4.56-.25,20.87,27.74,23.18,32.89,15.04,33.69,4.47,79.82-11.39,111.79-9.81,19.79-20.51,39.96-30.43,59.03-6.01,11.56-5.69,16.55-21.03,12.9-3.34-.79-7.09-6.17-9.27-9.07-39.31-52.2-57.63-116.91-80.93-177.14-2.2-5.68-5.84-22.78-7.86-26.04-1.02-1.64-3.89-1.4-4.43-3.61-.67-2.69.51-8.93-.14-12.16-.19-.93-1.77-.85-2.15-2.77-2.04-10.38,1.11-12.29,2.25-20.63,3.77-27.63,3.74-33.53,18.64-57.01,1.22-1.92,1.43-5.72,3.35-7.6,1.47-1.45,3.4-1.05,3.7-1.38.92-.98,3.3-15.12,9.6-10.44ZM18.22,246.73l-.08.96.52-.44-.44-.52ZM38.63,250.41c-.28-.38-5.92-1.04-6.75,1-.23.57.09,7.11.24,8.35.12,1.02,1.85.41,1.7,2.29-.04.54-4.89,6.87-3.73,9.81l3.02-1.66-.39,4.78c2.34-1.43,2.11-5.81,3.27-8.2.69-1.42,3.5-.55,2.38-2.81-.12-.24-1.6.4-1.78-1.6-.17-1.83.73-4.3.63-6.29l1.49,4.94c.07-1.76,1.4-3.61,1.5-5.25s-1.33-1.2-1.77-2.28c-.33-.81.47-2.71.21-3.06Z"/>
      <g>
        <path class="cls-1" d="M229.39,854.62c-1.29,3.69-2.89-1.66-3.23-1.7-2.09-.28-1.78,6.5-4.78,5.36-1.26-8.28-3.92-17.74-4.48-26.02-.45-6.72,1.56-18.22-.02-23.99-.32-1.16-.88-3.55-2.6-2.68-.71.36-2.17,13.83-2.35,15.74-.27,2.75,1.06,4.93.83,7.39-.74,8.14-7.64,21.37-8.46,30.68-.24,2.7,1.46,9.49.19,10.98l-11.63,5.74c0-4.7-.92-9.96-2.47-14.37-.95-2.71-3.62-4.85-3.66-5.16-.13-1.05,3.82-10.75-1.48-10.05-3.29.43-8.64,20.38-9.15,23.95-.87,6.09.27,10.84-.07,16.72l-15.4,10.28-2.45-10.39c-1.74-1.72-3.54.91-4.64.95-1.5.06-2.11-2.5-4.01-1.71-5.14,2.11-6.28,28.51-15.09,30.69-1.01.25-4.54.41-4.87.03-.86-1,2.11-22.36,2.22-26.33,1.08-37.73-3.25-73.49,2.77-111.68,1.55-9.84,5.75-21.89,6.59-31.29.79-8.79-1.05-20.58-.48-29.91.68-11.07,3.59-21.54,4.76-32.4,3.29-30.64,2.54-61.63,4.94-92.2,3.8-48.31,7.85-96.54,15.14-144.42,1.07-6.99,3.95-14.87,4.76-21.75,1.28-10.9,1.09-16.37,3.17-27.88,9.15-50.59,14.04-78.14-23.25-116.19-6.58-6.71-4.62-9.04-7.49-14.16-.57-1.01-2.75-.82-3.29-1.86-3.68-7.11-5.81-16.3-9.03-23.31-.3-.66-.58-3.6-2.25-2.06-1.12,1.04,8.39,25.6,9.15,29.17,4.17,19.67-5.08,43.22-8.2,62.09-1.02,6.19-.31,14.43-1.73,20.11-.3,1.22-.84,2.99-2.03,1.26-1.25-42.22-16.65-87.37-3.06-128.56-.36-2.03-15.02-18.75-17.14-20.24-3.65-2.56-7.04-1.03-9.18-3.81-1.9-2.47-3.15-30.33-4.02-36.62-.8-5.76-4.72-29.68-6.7-33.48-.55-1.07-15.44-14.11-17.8-16.1-2.51-2.13-5.94-3.01-8.14-5.58,7.54-1.3,14.41,3.23,21.89,3.31-3.31-6.51-3.54-16.71-6.24-22.74-2.8-6.26-16.69-13.32-16.65-14.43.2-5.84,10.3,3.17,12.42,1.54.2-.16-.75-3.43-.37-5.07.6-2.59,2.85-4.67,3.42-7.68,1.02-5.41-2.06-22.18-3.28-28.4-.33-1.67-3.48-10.85-3.03-11.22,4.24-3.44,16.81,17.3,19.34,17.97,1,.26,10.89-7.75,14.36-6.49l-.98-10.63c2.76-2.26,5.32,8.15,8.6,9.26l19.52-.17c1.69-8.18,4.72-16.03,6.8-24.09.42-1.65.31-13.33,4.39-10.6,2.8,1.88-.22,32.01,1.33,37.56l15.94,9.23c4.45.21,20.22-20.98,24.21-25.04.86-.88.18-2.43,2.62-1.6-.93,2.74-.6,8.23-1.34,10.51-2.07,6.41-16.63,26.47-16.46,30.67.17,4.13,6.45,13.16,6.91,18.07l1.92.75c5.68-6.14,11.5-17.97,17.43-23.1.93-.81,3.84-3.4,4.97-2,1.12,1.39-10.9,28.68-12.23,33.46-.73,2.61-3.59,14.76-3.44,16.59.76,9.55,21.21,17.42,19.21,33.72-.29,2.34-2.91,7.62-2.64,7.94.51.6,10.22,2.66,13.68,7.59l6.74,23.73c-.66,13.46-9.81,14.93-19.89,19.4,18.88.76,20.22-14.91,28.94-26.89,10.73,4.27,17.86,6.67,15.96,20.06-1.49,10.53-13.16,15.15-17.03,26.19-1.83,5.22-3.91,17.07-2.47,22.32.5,1.82,5.6,8.57,6.95,9.31,8.72,4.78,14.05-11.37,21.39-14.12.99,2.59-2.04,2.86-2.08,3.13-1.57,11.86,4.51,43.23,5.46,57.6,2.08,31.41,1.14,62.83,7.89,93.82,3.82,17.52,15.26,45.36,16.42,61.73.44,6.16-1.87,12.53-1.88,17.79-.02,49.67,16.43,120.6,28.6,169.51,2.82,11.32,15.8,38.26,16.33,45.8.16,2.35.14,4.38-2.12,2.67l-20.32-33.1c-1.79-.16-1.87-.76-1.85,1.11.03,2.62,5.6,21.22,7,24.35,3.81,8.53,12.77,21.02,18.24,29.07,2.25,3.31,24.07,27.29,13.16,30.44-10.97,3.17-21.68-24.24-29.66-29.4-.35,5.61,15.82,30.2,12.62,32.9-4.5,3.79-12.24-16.06-14.33-17.69-1.89-1.47-4.07-.79-5.07-1.51-1-.72-1.7-8.81-4.16-9.81,3.62,18.34,14.26,34.31,22.68,50.71.36,1.25-.62,4.06-1.78,4.1-4.09.13-16.86-28.49-20.4-32.56,2.67,13.21,9.87,36.24,20.44,44.98,3.78,3.13,7.51.42,5.41,8.32l-2.66-2.63c-1.09-1.25-.99-.22-1.07.88-.42,5.67,2.86,4.69,3.33,5.68.53,1.1-5.82,10.52-10.1,7.19-8.98-6.98-12.2-17.75-16.13-27.32-3.4-8.28-1.86,4.42-.81,7.8,1.32,4.25,5.89,8.53,6.52,10.51.71,2.24-.25,4.58.37,6.8.52,1.85,3.54,7.5,3.37,8.46-.48,2.66-4.3,2.19-4.52,2.35-.84.61-8.83,8.46-10.41,6.5-.5-.62-.08-13.19-.54-16.03-.27-1.64,1.17-2.71-1.74-2.48-.01,5.98-3.7,9.74-4.78,15.94-.96,5.47,3.12,9.42-5.74,7.15l-7.07-48.7c-2.7,3.04-.4,9.01-.6,12.93-.62,12.18-.87,29.97-7,40.18-.59.98-5.43,8.39-5.79,8.8-.76.85-2.58.34-3.53,1.29-.48.48-3.01,7.63-4.83,5.37-.9-1.12-.23-23.69-.57-27.54-.46-5.22-3.14,1.6-3.36,4.55-.68,8.89-.11,10.8-2.48,20.15-1.05,4.16.34,10.61-5.51,12.44-1.66.52-2.48-5.68-2.56-6.71-.42-5.07,1.55-13.09-1.68-16.8.76,2.13-1.41,5.07-1.5,6.14-.45,5.25-.6,19.12-1.95,22.99ZM126.64,213.49c.76-.59,7.92-14.71,9.13-16.98-5.29-17.84-3.31-39.8-9.41-57.02-2.75-7.75-16.46-31.35-21.48-37.9-6.82-8.9-18.92-14.43-26.6-22.45-.84,2.17-1.39,3.23-1.05,5.7,1.08,7.97,8.93,21.86,11.65,30.25,5.23,16.11,7.98,38.17,11.24,55.43,1,5.32.43,15.5,2.2,19.41.51,1.12,14.64,16.17,16.63,18.07.94.9,6.95,6.08,7.7,5.5ZM179.97,204.54c-1,.59.4,1.36.82,1.96,1-.55-.34-1.31-.82-1.96ZM126.41,216.36l-1.74-2.07-.17,1.91,1.91.16ZM283.02,762.63c.55.69,1.41,2.55,1.7,2.61,3.97.81-2.15-17.8-2.66-19.07-.58-1.46-.62-2.81-2.73-2.58,2.77,4.93.88,15.52,3.69,19.04ZM232.57,783.02c-2.51-3.72-2.27,8.09-1.67,8.54,3.04.04,2.18-7.79,1.67-8.54ZM167.36,880.71c1.74-1.26,3.4-19.03,1.16-19.18-4.06-.26-8.18,24.27-1.16,19.18Z"/>
        <path class="cls-1" d="M351.12,80.14c1.24,1.47,2.88,33.13,4.51,38,1.96-.65,1.22-7.66,2.65-8.45,4.57-2.52,1.23,17.15,1.24,18.95.09,29.7,24.04,76.33,37.36,103.64,20.02,41.03,50.67,100.18,84.01,130.97,1.15,1.06,11.98,5.01,5.06,7-1.11.32-15.83-.2-18-.53-8.18-1.25-43.43-21.08-46.23-19.23-.94.62,8.1,16.03,9.14,17.62,4,6.09,15.2,17,17.46,21.73,5.66,11.86-9.58-1.12-11.14-2.15-53.83-35.48-85.7-72.22-104.02-135.43-2.96-10.2-11.54-89.61-9.6-97.81.66-2.8,2.61-3.38,2.87-4.52,1.58-6.94,3.54-28.87,6.69-33.7.91-1.4,2.01-.38,2.22.83.73,4.18-1.51,10.95-.22,15.75,1.31-1.5,3.64-5.35,4.23-7.09,2.91-8.59,7.14-23.07,8.69-31.86.21-1.18-.2-17.6,3.1-13.7ZM354.76,292.71c16.95,33.09,44.3,62.9,75.39,83.09-6.88-6.48-10.63-22.46-15.84-28.42-2.37-2.72-8.1-6.06-11.3-9.14-15.94-15.39-31.81-30.68-48.25-45.53Z"/>
        <path class="cls-1" d="M85.53,882.16c-.61-.72-7.32-16.22-7.42-17.29-.85-9.69,2.75-24.12,1.91-34.51-.31-3.39-2.66-1.49-2.74-1.68-.94-2.35,2.15-15.42,1.61-19.16-1.79.21-1.91,1.75-2.22,3.16-3.33,15.27-1.58,31.44-3.88,46.03-.16,1.03.25,3.24-1.62,2.25-1.17-.62-7.5-11.55-7.62-13.11-.1-1.3.5-5.03.34-8.33-.08-1.57.73-6.81.52-7.1-3.04-4.15-3.82,11.6-4.4,12.16-7.46-5.54-4.26-19.33-6.57-24.69-1-2.32-4.79,3.41-6.4,1.4-2.79-3.47,10.42-18.56,8.56-21.46-.32-.5-6.38,4.98-11.15,2.77-4.97-2.3,8.81-8.56,4.39-13.95-.43-.53-11.02,9.93-10.81,2.51.11-4.04,7.98-7.31,10.47-9.78,24.4-24.33,29.55-56.75,45.32-86.48,16.9-71.47,34.85-143.38,42.25-216.57l10.46-21.93c.41,14.67-6,29.07-7.55,43.21-1.63,14.88-.81,30.88-2.89,46.14-10.65,78.25-29.33,155.58-40.2,233.84-4.04,29.07,1.02,62.7-2.69,89.49-.54,3.93-3.78,8.97-3.6,13.76-1.06,1.41-3.2.35-4.06-.66ZM67.37,786.34c1.84,2.37,5.9-8.21,6.08-9.1-2.96-.18-6.73,8.28-6.08,9.1ZM56.26,797.94l-.08.96.52-.44-.44-.52ZM63.07,804.45c-2.93,1.2-4.07,12.54,1.6,6.64,3.35-3.49,2.3-8.23-1.6-6.64ZM86.17,848.72c-.09-.11-2.75-.33-2.86-.24-.73.59-2.75,16.97-2.63,18.62.12,1.58,2.82,3.55,4.09,3.71.89.11,2.57-9.49,2.46-10.96-.13-1.78-1.71-1.45-1.82-2.23-.2-1.5,1.64-7.89.75-8.9Z"/>
        <path class="cls-1" d="M334.21,692.82c6.04,6.1,10.58,14.41,17.16,20.21-7.66-1.16-22.15-12.65-20.35-21.48.66-3.27,2.78.85,3.19,1.27Z"/>
        <path class="cls-1" d="M334.21,755.96c-4.35-.41-9.26-6.05-9.54-10.21-.73-10.89,15.32,3.82,9.54,10.21Z"/>
        <path class="cls-1" d="M271.26,804.64l1.67-8.54c-.92,2.8,2.1,7.33-1.67,8.54Z"/>
        <path class="cls-1" d="M140.49,288.95l-.04-10.61c1.96,2.64.37,7.66.04,10.61Z"/>
        <path class="cls-1" d="M253.01,247.38l-1.16-8.77c2.58,1.51,1.24,6.32,1.16,8.77Z"/>
        <path class="cls-1" d="M280.48,820.87l-3.03,1.66c-.25-2.55.73-1.95,3.03-1.66Z"/>
        <path class="cls-1" d="M163.76,304.46c1.04,1.24,2.89,3.25,2.49,4.99-1.04-1.24-2.89-3.25-2.49-4.99Z"/>
        <path class="cls-1" d="M254.03,258.08c-.66,1.3-1.38-2.39-.61-3.9.66-1.3,1.38,2.39.61,3.9Z"/>
        <path class="cls-1" d="M253.47,253.21c-.56,1-1.49-1.53-.69-2.94.56-1,1.49,1.53.69,2.94Z"/>
        <path class="cls-1" d="M254.58,262.95c-.56,1-1.49-1.53-.69-2.94.56-1,1.49,1.53.69,2.94Z"/>
        <rect class="cls-1" x="226.72" y="221.61" width="1.91" height=".94" transform="translate(-12.88 430.14) rotate(-85.14)"/>
        <polygon class="cls-1" points="228.88 219.29 229.32 219.81 228.8 220.24 228.88 219.29"/>
        <path class="cls-1" d="M320.17,69.79c.64,13.31-1.62,26.61-1.93,39.89-.95,41.27-.61,86.19,5.39,127.48,1.52,10.47,4.88,20.64,6.42,31.04,5.04,34.1,4.68,49.37,17.83,82.77,12.32,31.28,27,62.09,40.83,92.7l-40.5-44.95c6.73,18,14.38,35.71,22.3,53.2,18.47,40.81,39.03,80.6,69.57,113.81,1.71,1.86,6.6,4.52,7.03,6.56.84,4.03-1.81,4.37-4.98,3.3-5.35-1.82-26.14-18.78-31.23-23.47-19.77-18.2-34.25-41.19-52.22-60.86,4.62,18.49,5.68,37.57,9.19,56.26,7.6,40.51,26.31,96.53,52.59,128.58,2.81,3.43,14.5,11.64,13.28,16.04-1.56,5.59-6.99,2.9-10.13.43-9.23-7.27-25.62-24.28-34.35-33.27-66.05-68.1-105.26-181.76-122.63-273.56-7.39-39.06-7.96-75.08-11.12-115.81-.09-1.11.6-2.31.74-3.44l-1.96.31c.2-1.83,1.36-3.18,1.44-5.12.15-3.39-.14-29.62-1.36-30.54-4.65-3.55-15.86,14.14-19.25,14.63-2.87.41-6.71-6.55-7.03-8.9-1.46-10.78,9.13-25.56,14.71-34.82,2.36-3.92,3.5-4.35,3.7-4.65,8.59-13.18,14.16-28.49,18.35-43.54,4.22,4.35-.58,6.82-.64,7.25-.6,3.89-.04,9.03-1.25,14.23-.63,2.7-4.7,4.27.39,7.34l14.87-49.87,1.58,3.36c-.2,2.35-3.01,17.95-2.5,18.75.1.16,3.04-1.04,3.48-1.66,1.93-2.72,6.78-18.89,8.02-23.18,2.95-10.19,4.31-21.24,8.01-31.62.27-.75,1.76-3.54,2.91-3.38l-.75,3.94,1.28,12.49,19.94-41.71ZM245.12,198.48l-.08.96.52-.44-.44-.52ZM260.91,250.95l-.08.96.52-.44-.44-.52ZM261.16,253.87c3.44,34.96,4.6,71.29,9.79,105.98,10.44,69.73,35.45,148.51,68.79,210.5,15.23,28.32,32.26,56,54.13,79.7-16.17-34.49-29.23-69.62-36.24-107.24-3.85-20.68-4.75-52.23-10.64-71.05-2.21-7.05-14.43-24.49-18.77-33.07-21.58-42.7-40.6-88.61-54.72-134.34l-12.34-50.48Z"/>
        <polygon class="cls-1" points="191.8 54.06 192.24 54.58 191.72 55.01 191.8 54.06"/>
        <polygon class="cls-1" points="309.64 801.14 310.08 801.66 309.56 802.1 309.64 801.14"/>
      </g>
    </g>
  </g>
</svg>