<?xml version="1.0" encoding="UTF-8"?>
<svg id="Layer_2" data-name="Layer 2" xmlns="http://www.w3.org/2000/svg" viewBox="0 0 55.12 124.11">
  <defs>
    <style>
      .cls-1 {
        fill: red;
      }
    </style>
  </defs>
  <g id="Layer_1-2" data-name="Layer 1">
    <g>
      <path class="cls-1" d="M13.2,35.58c.82-1.84,1.54-2.28,3.21-1.07l2.69-17.17c3.01,6.02,3.81,13.77,3.77,20.38l3.2-1.07.02,10.72c1.75.34.56-3.39,3.21-2.14.1,7.47-1.07,15.17-2.16,22.54-5.51-4.12,4.43-14.97-3.19-18.24-1.83,7.65.74,36.22-12.89,22.55l5.87,2.14c3.74-.9,4.15-35.16,3.82-40.29-.12-1.87-.39-7.03-2.17-8.01-.73,11.46.49,25.89-1.03,37.07-.93,6.8-2.03,2.04-3.29.49-1.01-1.24-.75,3.81-3.19,2.13,1.64-9.9,1.17-20.08,2.14-30.04ZM16.42,43.09c-4.56-.08-1.09,10.16-2.13,12.87l2.13-12.87Z"/>
      <path class="cls-1" d="M48.46,120.22l-23.56,3.89-22.12-12.64c-.42-1.89-1.89-4.16-2.19-5.87-2.17-12.46,2.11-48,4.21-61.79C5.73,37.8,12.81,1.98,17.1.3c2.73-1.07,21.35.98,23.94,2.61,3.79,2.39,9.38,14.81,10.72,19.32,5.94,19.93,2.72,60.08.05,81.48-.29,2.29-2.63,16.07-3.35,16.51ZM13.2,35.58c-2.04,4.57-2.81,18.47-3.2,24.17-.79,11.5-2.29,33.18-1.07,43.96.98,8.61,8.87,15.08,17.21,11.74-.79-8.88,7.63-68.1,3.15-70.21-.15-11.83-3.78-27.11-11.27-36.49-3.32,8.64-3.94,17.77-4.82,26.83Z"/>
      <path class="cls-1" d="M21.64,78.64c4.91,3.08-3.02,9.59-3.1,10.17-.52,3.76,6.77,16.22,4.31,21.89-6.22-9.55-2.84-1.41-3.2-1.07-3.18,3-8.06-2.54-7.5-6.43l4.83,5.34c-3.77-6.65-4.19-11.24,3.72-4.79l-2.13-10.2-3.74,5.34c-3.14-2.45-4.23-5.7-3.74-9.63,1.37,2.01,3.87,3.77,5.34.51.34-.76-6.29-5.63-1.87-9.92,1.11-1.07,5.92-1.93,7.1-1.19ZM19.63,80.66c-2.84-2.74-5.96,5.24-2.68,5.34,1,.03,3.7-4.35,2.68-5.34ZM15.34,93.54h-2.14s1.61,2.13,1.61,2.13l.52-2.13Z"/>
      <polygon class="cls-1" points="26.08 75.3 24.47 77.41 22.87 74.21 26.08 75.3"/>
    </g>
  </g>
</svg>