<?xml version="1.0" encoding="UTF-8"?>
<svg id="Layer_2" data-name="Layer 2" xmlns="http://www.w3.org/2000/svg" viewBox="0 0 50.62 127.21">
  <defs>
    <style>
      .cls-1 {
        fill: red;
      }
    </style>
  </defs>
  <g id="Layer_1-2" data-name="Layer 1">
    <g>
      <path class="cls-1" d="M14.14,2.01c3.14-2.67,22.29-2.65,25.99-.14,6.29,4.27,8.78,42.43,9.24,50.86.76,13.97,1.7,33.54,1.01,47.25-.17,3.38-1.73,17.33-2.9,19.64-.72,1.41-8.03,4.89-9.69,5.34-3.92,1.04-20.59,2.62-24.18,2.18-4.01-.48-11.76-8.18-12.52-12.18-3.04-16.06.92-57.43,3.31-74.92.78-5.73,6.5-35.29,9.73-38.03ZM20.34,33.99c-1-5.73,1.31-16.49-5.33-18.24l-4.3,16.1c1.59-1.45,7.34,2.16,7.48-1.61.12-3.33-5.17-1.38-5.33-1.61-1.14-1.64,3.23-6.85,5.9-.99.87,1.92-1.17,5.65,1.58,6.35ZM20.24,35.18c-1.82.57-8.38-2.36-9.02-1.21-1.39,2.48-2.29,15.92-2.65,19.89-1.49,16.76-3.37,40.22-2.81,56.68.32,9.35,5.84,12.54,14.66,8.64,1.97-28.01,3.3-56.04-.18-84Z"/>
      <path class="cls-1" d="M18.2,37.22c.72.67-1.2,3.85-1.12,4.75.07.78,2.01.54,2.09.68,1.52,2.58-2.33,1.9-2.96,3.8s.51,5.14-.66,6.89c-.8,1.2-3.36,1.45-3.78,1.04-1.54-1.53,2.87-3.69,2.25-6.94-.43-2.21-4.84-3.36-3.32-4.85.51-.5,3.84,1.53,4.27,1.08.15-.16,1.26-4.15,1.08-4.29-.95-.73-5.19,1.73-4.29-2.15,1.35.23,6.04-.36,6.43,0Z"/>
      <path class="cls-1" d="M11.77,68.34c-.62,6.65-.08,4.54,4.09,6.12,1.7.64,2.89-.51,2.35,2.45-1.58.68-5.83-1.44-6.42-1.07-.49.31-2.09,10.51-2.05,11.36.01.3,5.5,1.05-.65,3.64l-.24-17.4c.96-1.93-.43-5.96,2.92-5.1Z"/>
      <path class="cls-1" d="M19.28,56.54c.79,3.55-4.34,1.7-7.25,2.93-6.76,2.88,11.47,4.94,8.33,7.79-.46.42-10.18-2.79-10.52-3.4-3.7-6.61,4.21-8.33,9.45-7.32Z"/>
      <path class="cls-1" d="M19.28,90.86l-7.41-7.14.99-4.65,1.07,4.28,2.67.02-.53-5.37c7.47,1.38-1.21,8.35,3.21,12.86Z"/>
      <path class="cls-1" d="M13.91,108.07c3.51,3.47-3.69.24-3.21,2.11,2.17,2.31,7.26.76,7.49,1.08.55.76.08,7.55-1.6,7.49-1.65-.06-1.27-4.28-1.84-5.1s-5.7-2.1-7.26-6.17c-1.24-3.23,6.15.31,6.42.57Z"/>
      <path class="cls-1" d="M18.19,99.46c.44.36.65,7.18,1.09,8.58-3.83.78-.91-1.99-1.07-2.12-1.08-.93-7.68-1.97-9.65-1.1-.77-4.2,6.5-1.36,8.57-2.15l-2.13-3.2c.88.11,2.9-.25,3.19-.01Z"/>
      <path class="cls-1" d="M19.27,96.24c2.87,3-9.15,2.4-9.64.53l9.64-.53Z"/>
      <path class="cls-1" d="M11.46,113.74c.14.15,1.47,2.49.86,2.87-5.35-2.14-4.24-6.48-.86-2.87Z"/>
      <rect class="cls-1" x="13.92" y="60.84" width="2.13" height="1.05"/>
    </g>
  </g>
</svg>